PathFileType	4	(X/Y/Z)	RBDS021static.trc
DataRate	CameraRate	NumFrames	NumMarkers	Units	OrigDataRate	OrigDataStartFrame	OrigNumFrames
150.000000	150.000000	4	48	mm	150.000000	37	150
Frame#	Time	L.Ankle			L.Ankle.Medial			L.ASIS			L.GTR			L.Heel.Bottom			L.Heel.Lateral			L.Heel.Top			L.HF			L.Iliac.Crest			L.Knee			L.Knee.Medial			L.MT1			L.MT2			L.MT5			L.PSIS			L.Shank.Bottom.Lateral			L.Shank.Bottom.Medial			L.Shank.Top.Lateral			L.Shank.Top.Medial			L.Thigh.Bottom.Lateral			L.Thigh.Bottom.Medial			L.Thigh.Top.Lateral			L.Thigh.Top.Medial			L.TT			R.Ankle			R.Ankle.Medial			R.ASIS			R.GTR			R.Heel.Bottom			R.Heel.Lateral			R.Heel.Top			R.HF			R.Iliac.Crest			R.Knee			R.Knee.Medial			R.MT1			R.MT2			R.MT5			R.PSIS			R.Shank.Bottom.Lateral			R.Shank.Bottom.Medial			R.Shank.Top.Lateral			R.Shank.Top.Medial			R.Thigh.Bottom.Lateral			R.Thigh.Bottom.Medial			R.Thigh.Top.Lateral			R.Thigh.Top.Medial			R.TT			
		X1	Y1	Z1	X2	Y2	Z2	X3	Y3	Z3	X4	Y4	Z4	X5	Y5	Z5	X6	Y6	Z6	X7	Y7	Z7	X8	Y8	Z8	X9	Y9	Z9	X10	Y10	Z10	X11	Y11	Z11	X12	Y12	Z12	X13	Y13	Z13	X14	Y14	Z14	X15	Y15	Z15	X16	Y16	Z16	X17	Y17	Z17	X18	Y18	Z18	X19	Y19	Z19	X20	Y20	Z20	X21	Y21	Z21	X22	Y22	Z22	X23	Y23	Z23	X24	Y24	Z24	X25	Y25	Z25	X26	Y26	Z26	X27	Y27	Z27	X28	Y28	Z28	X29	Y29	Z29	X30	Y30	Z30	X31	Y31	Z31	X32	Y32	Z32	X33	Y33	Z33	X34	Y34	Z34	X35	Y35	Z35	X36	Y36	Z36	X37	Y37	Z37	X38	Y38	Z38	X39	Y39	Z39	X40	Y40	Z40	X41	Y41	Z41	X42	Y42	Z42	X43	Y43	Z43	X44	Y44	Z44	X45	Y45	Z45	X46	Y46	Z46	X47	Y47	Z47	X48	Y48	Z48	

38	0.2466666666666667	713.3887939453125	110.8961181640625	1037.747924804688	729.8502807617188	122.5067672729492	1118.888671875	864.3533325195313	1002.962646484375	1113.34033203125	789.129150390625	920.53466796875	1038.488647460938	635.9747924804688	40.17499160766602	1086.018920898438	665.5560302734375	61.43961334228516	1041.310791015625	645.7108764648438	86.871826171875	1085.98046875	734.47216796875	455.2556457519531	1020.032836914063	777.58935546875	1062.096313476563	1062.441040039063	754.637451171875	533.097900390625	1027.938110351563	726.6358032226563	504.1782531738281	1155.637573242188	851.805908203125	57.1788330078125	1126.7353515625	863.9699096679688	62.47953796386719	1082.4521484375	821.5300903320313	47.70896148681641	1012.878601074219	680.11376953125	1023.076354980469	1189.461059570313	711.17822265625	183.224853515625	1028.742309570313	668.968994140625	186.8311157226563	1064.513793945313	705.2366333007813	262.46875	1014.926147460938	663.9544067382813	266.4295959472656	1049.350341796875	762.6073608398438	657.5899658203125	1021.68115234375	700.0345458984375	668.3700561523438	1054.766357421875	774.7520751953125	766.84765625	1014.554931640625	715.05029296875	777.4306640625	1046.68017578125	789.3515625	437.8605041503906	1074.188720703125	707.1970825195313	103.2414474487305	1422.311645507813	731.7755126953125	124.3996353149414	1341.316650390625	865.2744750976563	1004.787414550781	1337.556884765625	792.9302978515625	919.4451904296875	1409.491943359375	635.1010131835938	40.56187438964844	1372.244384765625	662.8108520507813	59.57555770874023	1417.416870117188	643.6672973632813	85.04207611083984	1372.822998046875	738.7256469726563	461.6746520996094	1431.892211914063	795.4476318359375	1060.208129882813	1384.446166992188	756.268798828125	534.8495483398438	1419.254150390625	748.714111328125	507.2709655761719	1286.789306640625	845.0888061523438	58.0340461730957	1333.56494140625	860.2562866210938	68.14583587646484	1384.873168945313	823.0798950195313	50.46044921875	1446.059936523438	679.2315063476563	1014.340942382813	1266.440063476563	694.3448486328125	186.7490386962891	1426.405883789063	664.4593505859375	193.9210357666016	1385.389526367188	694.8450927734375	270.8673095703125	1439.197875976563	660.5402221679688	273.6065673828125	1398.1083984375	764.5476684570313	662.9010009765625	1425.9072265625	700.8468017578125	665.6480102539063	1388.172973632813	765.4775390625	772.509033203125	1425.451049804688	706.8546752929688	774.879150390625	1387.209350585938	796.03173828125	435.3026733398438	1374.788452148438	
39	0.2533333333333334	713.3906860351563	110.9046478271484	1037.75146484375	729.8543701171875	122.4864654541016	1118.880004882813	864.3655395507813	1002.957397460938	1113.347290039063	789.129638671875	920.5352172851563	1038.508422851563	635.9720458984375	40.1713981628418	1086.013916015625	665.5560302734375	61.43359756469727	1041.305419921875	645.7090454101563	86.87220001220703	1085.97607421875	734.4763793945313	455.2550354003906	1020.049987792969	777.6253051757813	1062.10205078125	1062.458984375	754.6177978515625	533.0892944335938	1027.950927734375	726.6346435546875	504.1718139648438	1155.64501953125	851.7950439453125	57.17919921875	1126.741455078125	863.970947265625	62.46757507324219	1082.447387695313	821.5382690429688	47.70655822753906	1012.87646484375	680.135986328125	1023.078979492188	1189.49072265625	711.1773071289063	183.2209777832031	1028.752197265625	668.9617309570313	186.8237609863281	1064.517822265625	705.2285766601563	262.4669799804688	1014.932495117188	663.9481811523438	266.4359436035156	1049.358520507813	762.59765625	657.589599609375	1021.687194824219	700.0371704101563	668.369873046875	1054.78271484375	774.7401733398438	766.8558349609375	1014.573913574219	715.0419311523438	777.4368286132813	1046.696411132813	789.33154296875	437.8748168945313	1074.201904296875	707.1991577148438	103.2500915527344	1422.30908203125	731.7786254882813	124.3967590332031	1341.320556640625	865.2959594726563	1004.777038574219	1337.559936523438	792.9556884765625	919.4451293945313	1409.492797851563	635.10546875	40.57270431518555	1372.24658203125	662.8088989257813	59.56906127929688	1417.406372070313	643.6726684570313	85.05557250976563	1372.824584960938	738.7298583984375	461.6809387207031	1431.911987304688	795.4908447265625	1060.204711914063	1384.442749023438	756.2794799804688	534.8461303710938	1419.260864257813	748.7332763671875	507.2767944335938	1286.818237304688	845.0881958007813	58.04232788085938	1333.567993164063	860.262939453125	68.15353393554688	1384.889404296875	823.0913696289063	50.45807647705078	1446.068359375	679.2525634765625	1014.338439941406	1266.459228515625	694.3499755859375	186.7451324462891	1426.409057617188	664.4542236328125	193.9078826904297	1385.395751953125	694.8480834960938	270.8629150390625	1439.211791992188	660.5418701171875	273.6066589355469	1398.116943359375	764.5626220703125	662.9078979492188	1425.930541992188	700.8595581054688	665.6490478515625	1388.18212890625	765.5018920898438	772.4976806640625	1425.449829101563	706.871337890625	774.8766479492188	1387.219482421875	796.0292358398438	435.3128662109375	1374.796630859375	
40	0.26	713.396240234375	110.9017028808594	1037.7509765625	729.8506469726563	122.5012741088867	1118.893432617188	864.3861083984375	1002.949890136719	1113.355102539063	789.1309814453125	920.532958984375	1038.515014648438	635.9794311523438	40.16899108886719	1086.0234375	665.5595092773438	61.43210601806641	1041.30908203125	645.7144165039063	86.86883544921875	1085.975708007813	734.4442138671875	455.2601623535156	1020.05908203125	777.6461791992188	1062.107666015625	1062.47509765625	754.6157836914063	533.0927734375	1027.971923828125	726.615234375	504.1806335449219	1155.65576171875	851.8080444335938	57.19257354736328	1126.748779296875	863.977783203125	62.47932434082031	1082.453735351563	821.5335693359375	47.70998764038086	1012.880737304688	680.1519165039063	1023.091735839844	1189.506103515625	711.1663818359375	183.2220306396484	1028.751708984375	668.9605712890625	186.8293914794922	1064.519897460938	705.2286987304688	262.4623413085938	1014.939514160156	663.94140625	266.443359375	1049.362670898438	762.5885620117188	657.59716796875	1021.697814941406	700.0299072265625	668.3760375976563	1054.801879882813	774.7400512695313	766.8523559570313	1014.573303222656	715.0364990234375	777.4330444335938	1046.718383789063	789.3357543945313	437.8734741210938	1074.219116210938	707.1956176757813	103.2466812133789	1422.310913085938	731.7794799804688	124.4013748168945	1341.328125	865.3333129882813	1004.7685546875	1337.552734375	792.9884033203125	919.4346923828125	1409.508056640625	635.0984497070313	40.57779312133789	1372.25341796875	662.8082275390625	59.5611572265625	1417.405151367188	643.6683959960938	85.07311248779297	1372.835327148438	738.7220458984375	461.685302734375	1431.920166015625	795.5205688476563	1060.200561523438	1384.453857421875	756.2813110351563	534.8583374023438	1419.27685546875	748.738525390625	507.2731018066406	1286.8369140625	845.092041015625	58.05434036254883	1333.582153320313	860.2649536132813	68.15616607666016	1384.885009765625	823.0936889648438	50.46478652954102	1446.06982421875	679.2752075195313	1014.352661132813	1266.4736328125	694.3480224609375	186.7530822753906	1426.410400390625	664.4564819335938	193.9200439453125	1385.400390625	694.8491821289063	270.8704528808594	1439.216186523438	660.5426025390625	273.6083984375	1398.123901367188	764.5707397460938	662.9013671875	1425.9326171875	700.8644409179688	665.6563720703125	1388.195434570313	765.5309448242188	772.495849609375	1425.462768554688	706.8881225585938	774.8787841796875	1387.243041992188	796.022216796875	435.3006591796875	1374.797607421875	
41	0.2666666666666667	713.4060668945313	110.8991470336914	1037.764282226563	729.8460083007813	122.5027694702148	1118.899291992188	864.3969116210938	1002.941223144531	1113.365234375	789.1306762695313	920.5330810546875	1038.522338867188	635.9837646484375	40.16420745849609	1086.014770507813	665.5551147460938	61.42814254760742	1041.311889648438	645.7100830078125	86.8685302734375	1085.979736328125	734.4522094726563	455.2518005371094	1020.062377929688	777.6661987304688	1062.104248046875	1062.482177734375	754.5892333984375	533.089599609375	1027.968627929688	726.595703125	504.1733703613281	1155.665649414063	851.8104858398438	57.19545745849609	1126.753784179688	863.9732055664063	62.4801025390625	1082.459106445313	821.5281982421875	47.70771026611328	1012.879699707031	680.1748657226563	1023.087585449219	1189.536010742188	711.1680908203125	183.2158050537109	1028.755493164063	668.9572143554688	186.8272552490234	1064.519897460938	705.2171020507813	262.4614562988281	1014.936889648438	663.9368896484375	266.4269409179688	1049.36865234375	762.5701293945313	657.5933227539063	1021.698791503906	700.018310546875	668.3677978515625	1054.799560546875	774.7244262695313	766.8544921875	1014.586059570313	715.0383911132813	777.4288330078125	1046.730102539063	789.3199462890625	437.8668212890625	1074.213500976563	707.1969604492188	103.2523345947266	1422.311889648438	731.791015625	124.3945617675781	1341.33837890625	865.3727416992188	1004.760803222656	1337.554809570313	793.0150146484375	919.4305419921875	1409.527954101563	635.0960083007813	40.56197357177734	1372.2626953125	662.804931640625	59.57436752319336	1417.412841796875	643.6594848632813	85.06602478027344	1372.834838867188	738.7339477539063	461.6741027832031	1431.9228515625	795.5521850585938	1060.189453125	1384.46435546875	756.2893676757813	534.846923828125	1419.278442382813	748.705078125	507.2782287597656	1286.83154296875	845.0970458984375	58.05893707275391	1333.581787109375	860.2581176757813	68.14804077148438	1384.893798828125	823.0862426757813	50.46634292602539	1446.071166992188	679.3001708984375	1014.358093261719	1266.481567382813	694.3491821289063	186.7455444335938	1426.420532226563	664.4534301757813	193.9207153320313	1385.403686523438	694.8567504882813	270.8625793457031	1439.221557617188	660.544677734375	273.6022338867188	1398.127563476563	764.596923828125	662.8983764648438	1425.946044921875	700.8756103515625	665.65283203125	1388.2099609375	765.5604248046875	772.4867553710938	1425.464721679688	706.9010009765625	774.8832397460938	1387.248291015625	796.0228271484375	435.2991027832031	1374.787719726563	
